<svg width="164" height="39" viewBox="0 0 164 39" fill="none" xmlns="http://www.w3.org/2000/svg">
<path d="M0.953236 38V30.98C0.953236 30.3907 0.953236 30.0267 0.953236 29.888C0.953236 29.7147 0.953236 29.5933 0.953236 29.524C0.953236 29.4547 0.953236 29.316 0.953236 29.108V29.056C0.953236 28.8133 0.953236 28.6747 0.953236 28.64C0.953236 28.5707 0.953236 28.4493 0.953236 28.276C0.953236 28.068 0.953236 27.6867 0.953236 27.132V24.48C0.953236 23.8907 0.953236 23.5267 0.953236 23.388C0.953236 23.2147 0.953236 23.0933 0.953236 23.024C0.953236 22.9547 0.953236 22.816 0.953236 22.608V22.556C0.953236 22.3133 0.953236 22.1747 0.953236 22.14C0.953236 22.0707 0.953236 21.9493 0.953236 21.776C0.953236 21.568 0.953236 21.1867 0.953236 20.632V15.432C2.27057 15.432 3.1719 15.12 3.65724 14.496C4.17724 13.872 4.43724 13.04 4.43724 12V8.672C4.43724 7.632 4.17724 6.748 3.65724 6.02C3.1719 5.292 2.27057 4.928 0.953236 4.928V0.767999H16.1372V5.188C14.9586 5.188 14.0746 5.448 13.4852 5.968C12.9306 6.488 12.6532 7.19867 12.6532 8.1H22.6372C22.6372 7.19867 22.3426 6.488 21.7532 5.968C21.1986 5.448 20.3319 5.188 19.1532 5.188V0.767999H34.3372V4.928C33.0546 4.928 32.1532 5.292 31.6332 6.02C31.1132 6.748 30.8532 7.632 30.8532 8.672V12C30.8532 13.04 31.1132 13.872 31.6332 14.496C32.1532 15.12 33.0546 15.432 34.3372 15.432V38H19.1532V30.98C19.1532 30.3907 19.1532 30.0267 19.1532 29.888C19.1532 29.7147 19.1532 29.5933 19.1532 29.524C19.1532 29.4547 19.1532 29.316 19.1532 29.108V29.056C19.1532 28.8133 19.1532 28.6747 19.1532 28.64C19.1532 28.5707 19.1532 28.4493 19.1532 28.276C19.1532 28.068 19.1532 27.6867 19.1532 27.132V24.48C19.1532 23.8907 19.1532 23.5267 19.1532 23.388C19.1532 23.2147 19.1532 23.0933 19.1532 23.024C19.1532 22.9547 19.1532 22.816 19.1532 22.608V22.556C19.1532 22.3133 19.1532 22.1747 19.1532 22.14C19.1532 22.0707 19.1532 21.9493 19.1532 21.776C19.1532 21.568 19.1532 21.1867 19.1532 20.632V15.172C20.4706 15.172 21.3719 14.86 21.8572 14.236C22.3772 13.612 22.6372 12.78 22.6372 11.74H12.6532C12.6532 12.78 12.9132 13.612 13.4332 14.236C13.9532 14.86 14.8546 15.172 16.1372 15.172V38H0.953236ZM36.3234 38V30.98C36.3234 30.3907 36.3234 30.0267 36.3234 29.888C36.3234 29.7147 36.3234 29.5933 36.3234 29.524C36.3234 29.4547 36.3234 29.316 36.3234 29.108V29.056C36.3234 28.8133 36.3234 28.6747 36.3234 28.64C36.3234 28.5707 36.3234 28.4493 36.3234 28.276C36.3234 28.068 36.3234 27.6867 36.3234 27.132V24.48C36.3234 23.8907 36.3234 23.5267 36.3234 23.388C36.3234 23.2147 36.3234 23.0933 36.3234 23.024C36.3234 22.9547 36.3234 22.816 36.3234 22.608V22.556C36.3234 22.3133 36.3234 22.1747 36.3234 22.14C36.3234 22.0707 36.3234 21.9493 36.3234 21.776C36.3234 21.568 36.3234 21.1867 36.3234 20.632V15.432C37.6407 15.432 38.5421 15.172 39.0274 14.652C39.5474 14.0973 39.8074 13.3 39.8074 12.26V8.568C39.8074 7.528 39.5474 6.696 39.0274 6.072C38.5421 5.41333 37.6407 5.084 36.3234 5.084V0.767999H48.1794L54.7834 7.632L61.3874 0.767999H73.2434V5.084C71.9607 5.084 71.0594 5.41333 70.5394 6.072C70.0194 6.696 69.7594 7.528 69.7594 8.568V12.26C69.7594 13.3 70.0194 14.0973 70.5394 14.652C71.0594 15.172 71.9607 15.432 73.2434 15.432V38H56.3434V30.98C56.3434 30.3907 56.3434 30.0267 56.3434 29.888C56.3434 29.7147 56.3434 29.5933 56.3434 29.524C56.3434 29.4547 56.3434 29.316 56.3434 29.108V29.056C56.3434 28.8133 56.3434 28.6747 56.3434 28.64C56.3434 28.5707 56.3434 28.4493 56.3434 28.276C56.3434 28.068 56.3434 27.6867 56.3434 27.132V24.48C56.3434 23.8907 56.3434 23.5267 56.3434 23.388C56.3434 23.2147 56.3434 23.0933 56.3434 23.024C56.3434 22.9547 56.3434 22.816 56.3434 22.608V22.556C56.3434 22.3133 56.3434 22.1747 56.3434 22.14C56.3434 22.0707 56.3434 21.9493 56.3434 21.776C56.3434 21.568 56.3434 21.1867 56.3434 20.632V15.172H58.0594C59.3767 15.172 60.2781 14.8947 60.7634 14.34C61.2834 13.7853 61.5434 12.988 61.5434 11.948V6.644L54.7834 13.456L48.0234 6.644V11.948C48.0234 12.988 48.2834 13.7853 48.8034 14.34C49.3234 14.8947 50.2247 15.172 51.5074 15.172H53.2234V38H36.3234ZM75.2495 38V30.98C75.2495 30.3907 75.2495 30.0267 75.2495 29.888C75.2495 29.7147 75.2495 29.5933 75.2495 29.524C75.2495 29.4547 75.2495 29.316 75.2495 29.108V29.056C75.2495 28.8133 75.2495 28.6747 75.2495 28.64C75.2495 28.5707 75.2495 28.4493 75.2495 28.276C75.2495 28.068 75.2495 27.6867 75.2495 27.132V24.48C75.2495 23.8907 75.2495 23.5267 75.2495 23.388C75.2495 23.2147 75.2495 23.0933 75.2495 23.024C75.2495 22.9547 75.2495 22.816 75.2495 22.608V22.556C75.2495 22.3133 75.2495 22.1573 75.2495 22.088C75.2495 22.0187 75.2495 21.8973 75.2495 21.724C75.2495 21.5507 75.2495 21.1867 75.2495 20.632V15.432C76.5668 15.432 77.4681 15.12 77.9535 14.496C78.4735 13.872 78.7335 13.04 78.7335 12V8.672C78.7335 7.632 78.4735 6.748 77.9535 6.02C77.4335 5.292 76.5148 4.928 75.1975 4.928V0.767999H101.821V8.412H97.1415C97.1415 7.372 96.8815 6.54 96.3615 5.916C95.8761 5.25733 94.9748 4.928 93.6575 4.928H87.3655V8.1H93.4495V11.74H87.3655V15.172H93.9695C95.2868 15.172 96.1881 14.912 96.6735 14.392C97.1935 13.8373 97.4535 13.04 97.4535 12H102.133V20.632C102.133 21.1867 102.133 21.568 102.133 21.776C102.133 21.9493 102.133 22.0707 102.133 22.14C102.133 22.1747 102.133 22.3133 102.133 22.556V22.608C102.133 22.816 102.133 22.9547 102.133 23.024C102.133 23.0933 102.133 23.2147 102.133 23.388C102.133 23.5267 102.133 23.8907 102.133 24.48V27.132C102.133 27.6867 102.133 28.068 102.133 28.276C102.133 28.4493 102.133 28.5707 102.133 28.64C102.133 28.6747 102.133 28.8133 102.133 29.056V29.108C102.133 29.316 102.133 29.4547 102.133 29.524C102.133 29.5933 102.133 29.7147 102.133 29.888C102.133 30.0267 102.133 30.3907 102.133 30.98V38H75.2495ZM104.118 38V30.98C104.118 30.3907 104.118 30.0267 104.118 29.888C104.118 29.7147 104.118 29.5933 104.118 29.524C104.118 29.4547 104.118 29.316 104.118 29.108V29.056C104.118 28.8133 104.118 28.6747 104.118 28.64C104.118 28.5707 104.118 28.4493 104.118 28.276C104.118 28.068 104.118 27.6867 104.118 27.132V24.48C104.118 23.8907 104.118 23.5267 104.118 23.388C104.118 23.2147 104.118 23.0933 104.118 23.024C104.118 22.9547 104.118 22.816 104.118 22.608V22.556C104.118 22.3133 104.118 22.1747 104.118 22.14C104.118 22.0707 104.118 21.9493 104.118 21.776C104.118 21.568 104.118 21.1867 104.118 20.632V15.432C105.436 15.432 106.337 15.172 106.822 14.652C107.342 14.0973 107.602 13.3 107.602 12.26V8.412C107.602 7.372 107.342 6.54 106.822 5.916C106.337 5.25733 105.436 4.928 104.118 4.928V0.767999H126.53C127.05 0.767999 127.674 0.802665 128.402 0.871998C129.165 0.941332 129.91 1.132 130.638 1.444C131.401 1.72133 132.025 2.172 132.51 2.796C132.996 3.38533 133.238 4.23467 133.238 5.344C133.238 6.52266 132.874 7.424 132.146 8.048C131.418 8.63733 130.586 9.05333 129.65 9.296C128.714 9.504 127.917 9.608 127.258 9.608H126.322V10.076C127.224 10.076 128.142 10.18 129.078 10.388C130.049 10.5613 130.95 10.9427 131.782 11.532C132.614 12.0867 133.273 12.9187 133.758 14.028C134.278 15.1373 134.538 16.628 134.538 18.5V20.632C134.538 21.1867 134.538 21.568 134.538 21.776C134.538 21.9493 134.538 22.0707 134.538 22.14C134.538 22.1747 134.538 22.3133 134.538 22.556V22.608C134.538 22.816 134.538 22.9547 134.538 23.024C134.538 23.0933 134.538 23.2147 134.538 23.388C134.538 23.5267 134.538 23.8907 134.538 24.48V27.132C134.538 27.6867 134.538 28.068 134.538 28.276C134.538 28.4493 134.538 28.5707 134.538 28.64C134.538 28.6747 134.538 28.8133 134.538 29.056V29.108C134.538 29.316 134.521 29.5413 134.486 29.784C134.486 30.0267 134.469 30.252 134.434 30.46C134.4 30.6333 134.365 30.8067 134.33 30.98C133.845 33.1293 132.718 34.8453 130.95 36.128C129.217 37.376 127.137 38 124.71 38H104.118ZM116.338 15.172H122.266C123.722 15.172 124.45 14.6 124.45 13.456C124.45 12.312 123.74 11.74 122.318 11.74H116.338V15.172ZM116.338 8.1H121.226C122.682 8.1 123.41 7.59733 123.41 6.592C123.41 6.10667 123.237 5.708 122.89 5.396C122.544 5.084 122.006 4.928 121.278 4.928H116.338V8.1ZM148.093 23.752C145.667 23.752 143.743 23.2147 142.321 22.14C140.935 21.0653 140.241 19.6093 140.241 17.772C140.241 15.9 140.935 14.2187 142.321 12.728C143.708 11.2373 145.563 10.18 147.885 9.556L151.837 8.516C152.6 8.308 153.137 8.08267 153.449 7.84C153.761 7.59733 153.917 7.30267 153.917 6.956C153.917 6.36667 153.588 5.88133 152.929 5.5C152.271 5.11867 151.421 4.928 150.381 4.928H149.237C146.325 4.928 144.869 6.176 144.869 8.672H136.341C136.341 5.82933 137.433 3.74933 139.617 2.432C141.801 1.11466 145.251 0.455997 149.965 0.455997C154.437 0.455997 157.887 0.99333 160.313 2.068C162.775 3.14266 164.005 4.65067 164.005 6.592C164.005 7.66667 163.537 8.672 162.601 9.608C161.7 10.5093 160.573 11.0987 159.221 11.376L154.489 12.416C152.929 12.728 152.149 13.2827 152.149 14.08C152.149 14.4613 152.34 14.7387 152.721 14.912C153.103 15.0853 153.744 15.172 154.645 15.172H158.233V23.752H148.093ZM150.225 38.676C148.319 38.676 146.759 38.0693 145.545 36.856C144.367 35.608 143.777 33.9787 143.777 31.968C143.777 30.7893 144.072 29.732 144.661 28.796C145.251 27.86 146.031 27.1147 147.001 26.56C148.007 25.9707 149.116 25.676 150.329 25.676C151.508 25.676 152.565 25.9707 153.501 26.56C154.472 27.1147 155.235 27.86 155.789 28.796C156.379 29.732 156.673 30.7893 156.673 31.968C156.673 33.112 156.361 34.204 155.737 35.244C155.148 36.2493 154.368 37.0813 153.397 37.74C152.427 38.364 151.369 38.676 150.225 38.676Z" fill="black"/>
</svg>
